<svg width="90" height="90" viewBox="0 0 90 90" fill="none" xmlns="http://www.w3.org/2000/svg">
<g id="picto/darktheme/nuit">
<path id="Vector 11" d="M62.6419 59.595C62.8661 59.2403 62.8975 58.7968 62.7254 58.4141C62.5532 58.0314 62.2006 57.7607 61.7864 57.6932C49.3493 55.6666 43.703 49.1746 42.541 42.5253C41.3594 35.7637 44.7213 28.4673 51.0702 24.6389C51.4634 24.4018 51.695 23.9683 51.6734 23.5096C51.6518 23.051 51.3805 22.6412 50.9668 22.4421C35.3461 14.924 14.0041 31.9884 22.7614 52.9799C26.2272 61.2875 34.0446 66.3029 41.9867 67.5962C49.9124 68.8868 58.2743 66.5019 62.6419 59.595Z" stroke="#565656" stroke-width="2.5" stroke-linecap="round" stroke-linejoin="round"/>
<path id="Subtract" fill-rule="evenodd" clip-rule="evenodd" d="M59.463 61.5898C59.463 61.5898 59.463 61.5898 59.463 61.5898C58.978 62.0775 58.4645 62.5292 57.9257 62.9452C58.4645 62.5291 58.978 62.0775 59.463 61.5898ZM26.6834 51.3434C20.3767 36.226 32.7836 24.1771 44.0222 24.9406C39.429 29.8747 37.2057 36.6854 38.3541 43.2568C39.6932 50.92 45.4489 57.5981 55.9012 60.7081C52.4532 63.2723 47.6722 64.216 42.6694 63.4013C35.9091 62.3005 29.4869 58.0633 26.6834 51.3434Z" fill="#565656"/>
</g>
</svg>
