<svg width="90" height="90" viewBox="0 0 90 90" fill="none" xmlns="http://www.w3.org/2000/svg">
<g id="picto/darktheme/jour">
<circle id="Ellipse 44" cx="45" cy="45" r="16.75" stroke="#565656" stroke-width="2.5"/>
<circle id="Ellipse 46" cx="45" cy="45" r="12" fill="#565656"/>
<rect id="Rectangle 44" x="44" y="20" width="3" height="5" rx="1.5" fill="#565656"/>
<rect id="Rectangle 46" x="70" y="44" width="3" height="5" rx="1.5" transform="rotate(90 70 44)" fill="#565656"/>
<rect id="Rectangle 48" x="61.3555" y="26" width="3" height="5" rx="1.5" transform="rotate(45 61.3555 26)" fill="#565656"/>
<rect id="Rectangle 45" x="44" y="65" width="3" height="5" rx="1.5" fill="#565656"/>
<rect id="Rectangle 47" x="25" y="44" width="3" height="5" rx="1.5" transform="rotate(90 25 44)" fill="#565656"/>
<rect id="Rectangle 49" x="29.5356" y="57.8203" width="3" height="5" rx="1.5" transform="rotate(45 29.5356 57.8203)" fill="#565656"/>
<rect id="Rectangle 50" x="63.4766" y="61.3555" width="3" height="5" rx="1.5" transform="rotate(135 63.4766 61.3555)" fill="#565656"/>
<rect id="Rectangle 51" x="31.6567" y="29.5352" width="3" height="5" rx="1.5" transform="rotate(135 31.6567 29.5352)" fill="#565656"/>
</g>
</svg>
